<?xml version="1.0" encoding="UTF-8" standalone="no"?>
<!DOCTYPE svg PUBLIC "-//W3C//DTD SVG 1.1//EN" "http://www.w3.org/Graphics/SVG/1.1/DTD/svg11.dtd">
<svg width="100%" height="100%" viewBox="0 0 337 339" version="1.1" xmlns="http://www.w3.org/2000/svg" xmlns:xlink="http://www.w3.org/1999/xlink" xml:space="preserve" xmlns:serif="http://www.serif.com/" style="fill-rule:evenodd;clip-rule:evenodd;stroke-linejoin:round;stroke-miterlimit:2;">
    <g transform="matrix(2,0,0,2,139.427,7.523)">
        <path d="M0,8.844L2.55,6.916C3.189,8.009 4.139,8.68 5.71,8.488C7.222,8.303 7.527,7.659 7.461,7.122C7.355,6.267 6.519,6.027 4.36,5.705C2.22,5.382 0.07,4.637 -0.256,1.972C-0.584,-0.714 1.492,-2.543 3.899,-2.837C6.186,-3.118 8.11,-2.244 9.375,-0.319L6.883,1.581C6.284,0.646 5.552,0.109 4.279,0.264C3.285,0.387 2.848,0.945 2.916,1.502C2.995,2.138 3.385,2.535 5.635,2.926C7.821,3.304 10.277,3.75 10.638,6.694C10.966,9.378 9.014,11.233 5.991,11.603C3.066,11.962 1.026,10.798 0,8.844" style="fill:rgb(23,45,58);fill-rule:nonzero;"/>
    </g>
    <g transform="matrix(2,0,0,2,169.071,31.646)">
        <path d="M0,-15.823L3.342,-15.417L4.566,-5.377L8.436,-14.799L11.022,-14.485L12.524,-4.411L16.114,-13.866L19.457,-13.461L13.927,0L10.305,-0.44L9.036,-8.932L5.769,-0.991L2.149,-1.431L0,-15.823Z" style="fill:rgb(23,45,58);fill-rule:nonzero;"/>
    </g>
    <g transform="matrix(-0.643013,1.89381,1.89381,0.643013,226.872,34.3987)">
        <rect x="-10.785" y="-7.728" width="14.025" height="3.206" style="fill:rgb(23,45,58);"/>
    </g>
    <g transform="matrix(2,0,0,2,226.138,31.3826)">
        <path d="M0,1.474L3.193,1.328C3.1,2.59 3.504,3.68 4.909,4.411C6.26,5.114 6.875,4.755 7.124,4.276C7.521,3.511 6.969,2.839 5.37,1.354C3.789,-0.124 2.438,-1.955 3.677,-4.336C4.925,-6.736 7.672,-7.069 9.824,-5.951C11.867,-4.888 12.958,-3.078 12.913,-0.775L9.783,-0.62C9.818,-1.731 9.519,-2.586 8.38,-3.178C7.492,-3.64 6.817,-3.426 6.558,-2.929C6.263,-2.36 6.36,-1.812 7.994,-0.217C9.582,1.33 11.354,3.089 9.987,5.72C8.739,8.119 6.079,8.543 3.377,7.138C0.765,5.779 -0.259,3.665 0,1.474" style="fill:rgb(23,45,58);fill-rule:nonzero;"/>
    </g>
    <g transform="matrix(2,0,0,2,251.072,50.257)">
        <path d="M0,-1.093L3.161,-0.622C2.829,0.598 3.015,1.747 4.252,2.734C5.442,3.684 6.115,3.452 6.453,3.029C6.99,2.354 6.575,1.589 5.293,-0.177C4.027,-1.931 3.053,-3.989 4.727,-6.088C6.414,-8.203 9.174,-8.001 11.07,-6.489C12.873,-5.051 13.594,-3.065 13.106,-0.815L10.004,-1.265C10.254,-2.348 10.123,-3.245 9.122,-4.044C8.338,-4.67 7.634,-4.591 7.284,-4.151C6.884,-3.65 6.876,-3.093 8.171,-1.214C9.432,0.612 10.833,2.678 8.983,4.997C7.297,7.11 4.606,7.014 2.224,5.116C-0.078,3.279 -0.676,1.007 0,-1.093" style="fill:rgb(23,45,58);fill-rule:nonzero;"/>
    </g>
    <g transform="matrix(2,0,0,2,293.857,70.3914)">
        <path d="M0,11.72L-2.536,13.479L-7.56,6.234L3.966,-1.759L8.933,5.402L6.397,7.16L3.257,2.633L1.347,3.958L4.202,8.075L1.699,9.81L-1.156,5.693L-3.198,7.11L0,11.72Z" style="fill:rgb(23,45,58);fill-rule:nonzero;"/>
    </g>
    <g transform="matrix(2,0,0,2,303.936,106.714)">
        <path d="M0,4.362L1.21,1.673L3.979,3.023L2.631,6.008C3.36,6.097 4.148,6.01 4.945,5.681C7.26,4.726 8.11,2.424 7.239,0.313C6.367,-1.799 4.141,-2.832 1.826,-1.877C-0.489,-0.921 -1.339,1.38 -0.467,3.493C-0.338,3.808 -0.178,4.089 0,4.362M1.314,8.914L0.479,10.776L-2.289,9.426L-1.4,7.432C-2.218,6.708 -2.906,5.778 -3.356,4.685C-4.893,0.962 -3.213,-3.265 0.603,-4.84C4.42,-6.414 8.591,-4.603 10.128,-0.88C11.664,2.843 9.985,7.071 6.168,8.646C4.538,9.317 2.846,9.366 1.314,8.914" style="fill:rgb(23,45,58);fill-rule:nonzero;"/>
    </g>
    <g transform="matrix(2,0,0,2,313.813,154.342)">
        <path d="M0,-9.66L9.379,-11.16L9.886,-7.994L0.784,-6.539C-0.265,-6.371 -1.077,-5.734 -0.807,-4.052C-0.538,-2.369 0.43,-2.017 1.479,-2.185L10.582,-3.641L11.088,-0.475L1.709,1.025C-1.26,1.5 -3.408,-0.511 -3.895,-3.558C-4.381,-6.604 -2.968,-9.185 0,-9.66" style="fill:rgb(23,45,58);fill-rule:nonzero;"/>
    </g>
    <g transform="matrix(2,0,0,2,314.064,167.126)">
        <path d="M0,8.621L-3.083,8.508L-2.759,-0.303L11.258,0.214L10.936,8.924L7.853,8.811L8.056,3.304L5.734,3.218L5.548,8.224L2.505,8.112L2.69,3.106L0.207,3.015L0,8.621Z" style="fill:rgb(23,45,58);fill-rule:nonzero;"/>
    </g>
    <g transform="matrix(2,0,0,2,313.442,215.484)">
        <path d="M0,-11.924L0.95,-8.872C-0.294,-8.642 -1.248,-7.975 -1.599,-6.432C-1.937,-4.946 -1.434,-4.442 -0.906,-4.322C-0.067,-4.131 0.443,-4.837 1.476,-6.759C2.505,-8.663 3.936,-10.433 6.553,-9.838C9.19,-9.238 10.208,-6.664 9.671,-4.3C9.16,-2.053 7.685,-0.538 5.446,0L4.503,-2.988C5.586,-3.235 6.338,-3.743 6.623,-4.992C6.845,-5.97 6.467,-6.569 5.92,-6.694C5.296,-6.835 4.789,-6.602 3.661,-4.619C2.565,-2.69 1.313,-0.529 -1.579,-1.187C-4.217,-1.786 -5.3,-4.252 -4.624,-7.222C-3.971,-10.094 -2.186,-11.619 0,-11.924" style="fill:rgb(23,45,58);fill-rule:nonzero;"/>
    </g>
    <g transform="matrix(2,0,0,2,312.531,225.129)">
        <path d="M0,9.388L1.445,6.083L-8.579,1.7L-7.296,-1.236L2.728,3.145L4.173,-0.16L7.002,1.076L2.827,10.624L0,9.388Z" style="fill:rgb(23,45,58);fill-rule:nonzero;"/>
    </g>
    <g transform="matrix(2,0,0,2,298.064,257.43)">
        <path d="M0,-1.64L-1.359,0.343C-1.858,1.07 -1.621,2.107 -0.778,2.685C0.065,3.263 1.117,3.11 1.615,2.383L2.975,0.4L0,-1.64ZM-3.174,-1.97L-2.314,-3.226L-6.115,-5.831L-4.302,-8.475L7.265,-0.546L4.094,4.081C2.587,6.28 -0.393,6.835 -2.591,5.329C-4.012,4.355 -4.713,2.612 -4.484,0.897L-10.42,0.448L-8.471,-2.395L-3.174,-1.97Z" style="fill:rgb(23,45,58);fill-rule:nonzero;"/>
    </g>
    <g transform="matrix(-1.45364,-1.37366,-1.37366,1.45364,282.645,261.216)">
        <rect x="-11.011" y="4.378" width="14.027" height="3.207" style="fill:rgb(23,45,58);"/>
    </g>
    <g transform="matrix(2,0,0,2,256.753,287.307)">
        <path d="M0,2.014L4.429,5.113L2.614,0.022L0,2.014ZM-2.587,0.207L1.555,-2.952L0.777,-5.13L3.566,-7.255L8.277,6.79L5.027,9.269L-7.269,1.005L-4.482,-1.121L-2.587,0.207Z" style="fill:rgb(23,45,58);fill-rule:nonzero;"/>
    </g>
    <g transform="matrix(2,0,0,2,228.904,292.096)">
        <path d="M0,17.362L-5.907,4.641L-3.727,3.629L4.387,8.256L1.179,1.351L4.087,0L9.995,12.721L7.814,13.734L-0.299,9.107L2.908,16.012L0,17.362Z" style="fill:rgb(23,45,58);fill-rule:nonzero;"/>
    </g>
    <g transform="matrix(1.86061,-0.733579,-0.733579,-1.86061,99.5197,55.6579)">
        <rect x="-4.238" y="2.937" width="19.693" height="19.367" style="fill:rgb(228,47,43);"/>
    </g>
    <g transform="matrix(2,0,0,2,110.621,35.9988)">
        <path d="M0,-7.87L-3.909,-6.329L-5.45,-10.238L-8.884,-8.885L-7.343,-4.975L-11.252,-3.433L-9.899,0.001L-5.99,-1.541L-4.447,2.368L-1.015,1.014L-2.556,-2.895L1.354,-4.436L0,-7.87Z" style="fill:white;fill-rule:nonzero;"/>
    </g>
    <g transform="matrix(2,0,0,2,229.673,185.274)">
        <path d="M0,5.863L-0.778,4.362L-0.949,4.004C-1.278,3.31 -1.621,2.592 -1.929,1.863C-2.644,0.218 -3.327,-1.536 -3.961,-3.351C-4.558,-5.038 -5.148,-6.862 -5.714,-8.771C-6.685,-12.011 -7.619,-15.556 -8.652,-19.924C-8.743,-20.316 -8.85,-20.736 -8.955,-21.155L-9.012,-21.38C-9.094,-21.711 -9.19,-22.037 -9.285,-22.353C-9.334,-22.519 -9.384,-22.687 -9.436,-22.868C-9.591,-23.353 -9.751,-23.837 -9.923,-24.331C-9.986,-24.493 -10.045,-24.654 -10.105,-24.816C-10.219,-25.128 -10.337,-25.448 -10.469,-25.756C-11.255,-27.679 -12.201,-29.509 -13.283,-31.195C-14.379,-32.905 -15.664,-34.507 -17.104,-35.961L-17.283,-36.141C-17.4,-36.261 -17.519,-36.381 -17.647,-36.502L-18.193,-37.002C-18.474,-37.269 -18.774,-37.515 -19.063,-37.752L-19.348,-37.988C-19.55,-38.157 -19.767,-38.327 -19.976,-38.479C-20.16,-38.616 -20.34,-38.742 -20.513,-38.862L-20.585,-38.913C-20.978,-39.188 -21.302,-39.415 -21.567,-39.634C-21.812,-39.833 -21.997,-40.021 -22.137,-40.218C-22.187,-40.285 -22.229,-40.363 -22.274,-40.452C-22.287,-40.491 -22.311,-40.573 -22.331,-40.656C-22.389,-40.933 -22.432,-41.293 -22.455,-41.672C-22.467,-41.861 -22.475,-42.053 -22.477,-42.239L-22.477,-47.974L-22.478,-58.118L-22.476,-58.535L-27.078,-58.535L-27.072,-58.12C-27.093,-57.328 -27.232,-56.543 -27.485,-55.782C-27.694,-55.132 -28.045,-54.445 -28.562,-53.679C-28.723,-53.427 -28.913,-53.193 -29.115,-52.948L-29.272,-52.754L-29.426,-52.591C-29.646,-52.353 -29.855,-52.13 -30.088,-51.927C-30.716,-51.354 -31.301,-50.916 -31.904,-50.571C-31.989,-50.513 -32.08,-50.466 -32.171,-50.42C-32.233,-50.389 -32.297,-50.357 -32.35,-50.327L-32.561,-50.213L-32.945,-50.044C-33.049,-49.998 -33.148,-49.953 -33.255,-49.922L-33.546,-49.817C-33.602,-49.798 -33.657,-49.776 -33.744,-49.75C-34.03,-49.655 -34.313,-49.564 -34.592,-49.473C-35.129,-49.3 -35.637,-49.137 -36.141,-48.956C-37.785,-48.373 -39.184,-47.823 -40.413,-47.274C-42.106,-46.528 -43.541,-45.778 -44.697,-45.113C-47.468,-43.899 -50.357,-42.427 -53.023,-40.851C-55.345,-39.479 -57.427,-38.14 -59.204,-36.877C-59.611,-36.602 -60.002,-36.313 -60.38,-36.034L-61.093,-35.509C-61.397,-35.286 -61.695,-35.067 -61.991,-34.842C-62.28,-34.612 -62.567,-34.389 -62.849,-34.17C-63.41,-33.735 -63.938,-33.323 -64.435,-32.904C-64.689,-32.69 -64.938,-32.484 -65.179,-32.284C-65.649,-31.894 -66.092,-31.528 -66.492,-31.166L-68.1,-29.732C-68.95,-28.938 -69.505,-28.397 -69.687,-28.219L-69.715,-28.192C-69.738,-28.17 -70.256,-27.661 -71.145,-26.654C-71.265,-26.518 -71.392,-26.376 -71.527,-26.227C-71.813,-25.91 -72.127,-25.56 -72.461,-25.17L-72.48,-25.146C-72.868,-24.733 -73.23,-24.341 -73.561,-23.983L-73.974,-23.534L-75.755,-21.457C-75.775,-21.432 -75.804,-21.398 -75.839,-21.354C-75.942,-21.23 -76.097,-21.044 -76.284,-20.788L-77.279,-19.436C-78.093,-18.377 -79.072,-16.894 -80.205,-15.177L-82.163,-11.954C-82.575,-11.222 -82.978,-10.473 -83.406,-9.68C-83.598,-9.322 -83.792,-8.962 -83.997,-8.586C-84.404,-7.775 -84.811,-6.924 -85.204,-6.101C-85.387,-5.718 -85.571,-5.333 -85.763,-4.933C-86.164,-4.008 -86.556,-3.07 -86.949,-2.133L-87.379,-1.107L-88.782,2.768L-89.934,6.558C-90.5,8.739 -91.132,11.244 -91.465,13.358L-91.777,15.164L-91.901,16.102C-91.992,16.937 -92.06,17.651 -92.103,18.226C-92.235,20.006 -92.153,20.459 -91.687,20.536C-91.654,20.542 -91.621,20.544 -91.591,20.544C-91.2,20.544 -90.96,20.092 -90.471,18.535C-90.299,17.986 -90.101,17.305 -89.882,16.51L-89.753,16.036L-89.092,13.921C-88.573,12.113 -87.836,10.035 -87.056,7.835L-85.546,3.982L-83.936,0.379L-82.158,-3.161C-81.902,-3.615 -81.651,-4.069 -81.402,-4.519C-81.02,-5.205 -80.646,-5.882 -80.272,-6.529C-80.008,-6.953 -79.75,-7.374 -79.497,-7.789C-79.109,-8.421 -78.729,-9.041 -78.357,-9.627L-76.508,-12.365L-75.979,-13.086C-74.985,-14.443 -74.126,-15.613 -73.408,-16.472L-72.404,-17.733C-72.251,-17.93 -72.122,-18.079 -72.029,-18.185C-71.966,-18.257 -71.918,-18.312 -71.893,-18.345L-70.28,-20.352L-69.768,-20.951C-69.442,-21.333 -69.085,-21.752 -68.695,-22.199C-68.472,-22.427 -68.256,-22.646 -68.057,-22.847C-67.895,-23.008 -67.741,-23.161 -67.599,-23.307C-66.979,-23.943 -66.526,-24.38 -66.307,-24.589L-64.723,-26.215L-63.257,-27.655C-62.919,-27.993 -62.541,-28.343 -62.14,-28.714C-61.897,-28.937 -61.646,-29.167 -61.393,-29.408C-60.973,-29.803 -60.521,-30.199 -60.042,-30.617C-59.757,-30.867 -59.465,-31.121 -59.176,-31.379C-58.93,-31.592 -58.675,-31.805 -58.418,-32.018C-58.261,-32.149 -58.103,-32.28 -57.947,-32.412L-57.679,-32.635C-57.349,-32.912 -57.009,-33.197 -56.653,-33.472C-56.241,-33.806 -55.812,-34.147 -55.364,-34.495C-55.519,-34.195 -55.671,-33.887 -55.814,-33.565C-56.072,-33.049 -56.278,-32.509 -56.494,-31.938C-56.555,-31.781 -56.614,-31.621 -56.687,-31.435L-56.773,-31.168C-56.984,-30.505 -57.203,-29.82 -57.364,-29.099C-57.773,-27.396 -58.029,-25.625 -58.122,-23.837C-58.303,-20.263 -57.944,-16.243 -57.056,-11.891C-56.812,-10.696 -56.544,-9.524 -56.254,-8.357C-56.145,-7.893 -56.03,-7.421 -55.907,-6.936L-55.65,-5.928C-55.592,-5.701 -55.521,-5.466 -55.451,-5.231C-55.415,-5.115 -55.38,-4.998 -55.348,-4.887C-55.211,-4.391 -55.046,-3.928 -54.886,-3.479C-54.814,-3.276 -54.741,-3.071 -54.668,-2.856C-54.51,-2.428 -54.346,-2.009 -54.183,-1.594C-54.098,-1.38 -54.015,-1.168 -53.928,-0.943L-53.158,0.881C-51.043,5.676 -48.859,9.908 -46.933,13.644C-45.111,17.155 -43.463,20.245 -42.011,22.972L-36.129,34.003C-35.995,34.257 -35.775,34.669 -35.474,35.228C-34.368,37.29 -32.31,41.13 -29.52,46.566C-27.761,50.018 -25.673,54.174 -23.533,58.832C-22.361,61.39 -21.303,63.823 -20.302,66.269L-20.06,66.88C-19.621,67.989 -19.166,69.137 -18.749,70.308L-18.457,71.096L-19.081,71.202C-19.778,71.317 -20.532,71.429 -21.39,71.542C-22.905,71.746 -24.505,71.909 -26.149,72.028C-27.764,72.145 -29.421,72.214 -31.078,72.231C-31.607,72.24 -32.15,72.226 -32.678,72.213C-32.983,72.205 -33.289,72.197 -33.592,72.193L-35.09,72.162C-35.446,72.157 -35.784,72.151 -36.137,72.118C-43.591,71.685 -50.644,70.351 -57.113,68.152C-58.492,67.727 -59.876,67.186 -61.215,66.662C-61.592,66.516 -61.969,66.368 -62.34,66.226C-62.892,65.997 -63.45,65.747 -63.989,65.504C-64.299,65.364 -64.611,65.224 -64.919,65.09C-65.075,65.018 -65.232,64.948 -65.389,64.88C-65.665,64.757 -65.939,64.636 -66.201,64.514L-69.024,63.087C-69.362,62.915 -69.682,62.756 -70,62.566L-72.511,61.14C-72.82,60.973 -73.112,60.786 -73.422,60.588L-76.148,58.862L-78.812,56.99C-79.118,56.777 -79.406,56.576 -79.688,56.347L-82.002,54.548C-82.262,54.356 -82.506,54.145 -82.765,53.922C-82.878,53.824 -82.991,53.726 -83.102,53.631L-84.213,52.68C-84.346,52.565 -84.48,52.452 -84.614,52.338C-84.85,52.137 -85.086,51.935 -85.311,51.736L-87.976,49.224C-88.084,49.118 -88.19,49.009 -88.294,48.899L-90.513,46.598C-90.935,46.14 -91.352,45.661 -91.756,45.198C-91.988,44.932 -92.22,44.665 -92.451,44.405C-92.564,44.272 -92.682,44.14 -92.799,44.008C-93.01,43.771 -93.211,43.545 -93.399,43.302L-94.32,42.144C-95.302,40.962 -96.216,39.688 -97.1,38.455C-97.339,38.123 -97.578,37.789 -97.806,37.476C-98.057,37.087 -98.311,36.699 -98.565,36.313C-99.365,35.091 -100.194,33.828 -100.918,32.524C-101.678,31.285 -102.358,29.969 -103.015,28.699C-103.236,28.272 -103.457,27.844 -103.67,27.44C-103.883,26.972 -104.099,26.506 -104.315,26.039C-104.901,24.779 -105.507,23.476 -106.003,22.158L-106.636,20.583C-106.693,20.444 -106.75,20.306 -106.798,20.17L-107.967,16.79C-108.153,16.216 -108.322,15.625 -108.487,15.052C-108.582,14.724 -108.677,14.394 -108.775,14.069L-109.165,12.726L-109.492,11.351C-109.569,11.023 -109.648,10.694 -109.727,10.367C-109.866,9.793 -110.01,9.2 -110.13,8.626L-110.643,5.866C-110.789,5.168 -110.884,4.445 -110.977,3.746C-111.003,3.546 -111.029,3.348 -111.056,3.15L-111.278,1.511C-111.328,1.144 -111.375,0.797 -111.398,0.431C-112.092,-6.606 -111.908,-13.646 -110.853,-20.493C-109.934,-26.537 -108.242,-32.611 -105.825,-38.537L-104.449,-41.71C-104.338,-41.965 -104.234,-42.208 -104.107,-42.445L-102.282,-46.09L-100.355,-49.482C-100.228,-49.714 -100.084,-49.953 -99.883,-50.259L-98.401,-52.571C-97.962,-53.295 -97.47,-53.973 -96.996,-54.629C-96.813,-54.881 -96.632,-55.132 -96.458,-55.378L-96.109,-55.864C-95.586,-56.599 -95.091,-57.291 -94.553,-57.934L-92.712,-60.239C-92.332,-60.692 -91.947,-61.124 -91.575,-61.541C-91.359,-61.783 -91.145,-62.021 -90.942,-62.254L-90.077,-63.233C-89.827,-63.52 -89.589,-63.79 -89.335,-64.038L-86.572,-66.873L-85.453,-67.921C-83.181,-70.07 -83.15,-70.148 -83.444,-70.502C-83.759,-70.883 -83.893,-70.806 -86.286,-68.863L-87.497,-67.871L-90.434,-65.154C-90.724,-64.893 -90.992,-64.613 -91.297,-64.294L-92.169,-63.384C-92.369,-63.171 -92.575,-62.958 -92.785,-62.74C-93.196,-62.313 -93.622,-61.869 -94.054,-61.388L-95.993,-59.12C-96.584,-58.459 -97.125,-57.746 -97.699,-56.993L-98.038,-56.547C-98.216,-56.31 -98.398,-56.072 -98.583,-55.832C-99.1,-55.159 -99.635,-54.464 -100.119,-53.712L-101.677,-51.416C-101.897,-51.1 -102.067,-50.835 -102.209,-50.59L-104.26,-47.177L-106.209,-43.498C-106.355,-43.234 -106.479,-42.962 -106.601,-42.698L-108.073,-39.494C-110.693,-33.435 -112.559,-27.196 -113.619,-20.947C-114.836,-13.877 -115.142,-6.585 -114.53,0.712C-114.511,1.106 -114.464,1.496 -114.417,1.873L-114.144,4.161C-114.057,4.9 -113.966,5.665 -113.822,6.412L-113.334,9.262C-113.213,9.884 -113.07,10.511 -112.933,11.118C-112.858,11.448 -112.783,11.776 -112.712,12.11L-112.387,13.553L-111.998,14.968C-111.906,15.295 -111.816,15.622 -111.726,15.95C-111.559,16.56 -111.387,17.189 -111.193,17.816L-110.028,21.335C-109.974,21.492 -109.913,21.646 -109.854,21.8L-109.226,23.423C-108.715,24.831 -108.093,26.217 -107.49,27.559C-107.281,28.024 -107.073,28.489 -106.858,28.977C-106.643,29.398 -106.432,29.822 -106.219,30.245C-105.54,31.601 -104.837,33.004 -104.049,34.326C-103.298,35.716 -102.437,37.066 -101.603,38.371C-101.358,38.755 -101.114,39.139 -100.858,39.541C-100.629,39.866 -100.402,40.192 -100.174,40.516C-99.251,41.837 -98.297,43.202 -97.265,44.477L-96.332,45.677C-96.125,45.949 -95.902,46.206 -95.687,46.454C-95.571,46.589 -95.455,46.723 -95.336,46.865C-95.104,47.132 -94.874,47.402 -94.645,47.672C-94.221,48.169 -93.783,48.684 -93.331,49.185L-91.056,51.597C-90.94,51.721 -90.824,51.845 -90.699,51.97L-87.949,54.621C-87.705,54.844 -87.456,55.06 -87.207,55.278C-87.072,55.395 -86.938,55.513 -86.802,55.633L-85.655,56.637C-85.542,56.734 -85.428,56.835 -85.316,56.934C-85.05,57.17 -84.772,57.413 -84.485,57.632L-82.117,59.513C-81.808,59.769 -81.483,60.001 -81.169,60.225L-78.408,62.21L-75.578,64.045C-75.259,64.253 -74.928,64.468 -74.59,64.656L-72.008,66.158C-71.659,66.371 -71.297,66.557 -70.947,66.737L-68.017,68.256C-67.723,68.398 -67.426,68.533 -67.129,68.669L-66.662,68.883C-66.351,69.024 -66.04,69.166 -65.73,69.31C-65.154,69.575 -64.559,69.851 -63.955,70.107C-63.588,70.252 -63.223,70.4 -62.859,70.546C-61.429,71.122 -59.95,71.717 -58.472,72.19C-51.667,74.577 -44.239,76.053 -36.409,76.577C-36.023,76.616 -35.637,76.627 -35.264,76.638L-33.701,76.684C-33.391,76.69 -33.082,76.701 -32.773,76.71C-32.264,76.727 -31.739,76.746 -31.22,76.746C-31.162,76.746 -31.104,76.746 -31.047,76.744C-29.301,76.743 -27.549,76.686 -25.841,76.576C-24.108,76.466 -22.412,76.308 -20.804,76.107C-19.901,75.994 -19.101,75.883 -18.358,75.767L-17.754,75.672L-12.374,74.673L-13.935,69.881L-14.345,68.724C-14.776,67.484 -15.242,66.28 -15.692,65.115L-15.923,64.516C-16.933,61.992 -17.999,59.485 -19.18,56.854C-21.329,52.079 -23.411,47.858 -25.165,44.359C-28.154,38.432 -30.371,34.257 -31.318,32.475C-31.504,32.125 -31.646,31.856 -31.747,31.665L-37.842,20.407C-39.275,17.766 -40.899,14.772 -42.677,11.415C-44.507,7.938 -46.786,3.612 -48.871,-1.004L-49.614,-2.719C-49.699,-2.934 -49.786,-3.149 -49.873,-3.366C-50.022,-3.734 -50.171,-4.103 -50.307,-4.463C-50.375,-4.661 -50.448,-4.86 -50.522,-5.06C-50.663,-5.445 -50.809,-5.843 -50.918,-6.23C-50.951,-6.343 -50.986,-6.454 -51.02,-6.566C-51.077,-6.747 -51.135,-6.929 -51.187,-7.122L-51.443,-8.087C-51.58,-8.609 -51.705,-9.11 -51.827,-9.603C-52.072,-10.663 -52.299,-11.725 -52.502,-12.783C-53.262,-16.759 -53.548,-20.383 -53.35,-23.555C-53.254,-25.049 -53.025,-26.522 -52.667,-27.944C-52.544,-28.477 -52.377,-28.985 -52.214,-29.477L-52.109,-29.805C-52.04,-29.972 -51.974,-30.138 -51.91,-30.303C-51.746,-30.719 -51.592,-31.111 -51.395,-31.488C-50.911,-32.553 -50.305,-33.463 -49.834,-34.172L-49.03,-35.226L-48.263,-36.104C-47.491,-36.924 -46.865,-37.478 -46.49,-37.809C-46.383,-37.905 -46.295,-37.982 -46.252,-38.023L-45.099,-38.947L-43.859,-39.834C-42.243,-40.917 -40.413,-41.925 -38.42,-42.83C-37.312,-43.341 -36.036,-43.861 -34.517,-44.421C-34.067,-44.589 -33.607,-44.743 -33.119,-44.908C-32.842,-45.001 -32.562,-45.095 -32.278,-45.194L-31.583,-45.445C-31.372,-45.516 -31.179,-45.605 -30.995,-45.689L-30.459,-45.937L-30.113,-46.123C-30.045,-46.161 -29.975,-46.198 -29.905,-46.237C-29.744,-46.324 -29.576,-46.414 -29.434,-46.51C-28.593,-47.011 -27.772,-47.638 -26.929,-48.421L-26.834,-42.138C-26.824,-41.88 -26.811,-41.624 -26.79,-41.363C-26.754,-40.907 -26.696,-40.351 -26.545,-39.682C-26.456,-39.334 -26.366,-39.011 -26.166,-38.587C-25.987,-38.234 -25.804,-37.936 -25.611,-37.677C-25.249,-37.188 -24.793,-36.724 -24.256,-36.301C-23.839,-35.97 -23.434,-35.697 -23.077,-35.457L-22.464,-35.036C-22.307,-34.926 -22.162,-34.815 -21.992,-34.677C-21.897,-34.599 -21.799,-34.523 -21.703,-34.446C-21.459,-34.252 -21.226,-34.069 -21.001,-33.859L-20.514,-33.43C-20.416,-33.34 -20.321,-33.247 -20.225,-33.153L-20.052,-32.984C-18.8,-31.76 -17.674,-30.402 -16.708,-28.951C-15.735,-27.492 -14.878,-25.899 -14.152,-24.209C-14.036,-23.953 -13.935,-23.694 -13.828,-23.418C-13.767,-23.261 -13.705,-23.103 -13.647,-22.959C-13.489,-22.53 -13.337,-22.097 -13.194,-21.678C-13.146,-21.515 -13.094,-21.354 -13.043,-21.192C-12.956,-20.92 -12.867,-20.639 -12.793,-20.36L-12.714,-20.073C-12.619,-19.725 -12.524,-19.377 -12.429,-18.997C-11.299,-14.581 -10.277,-10.987 -9.215,-7.686C-8.585,-5.706 -7.955,-3.891 -7.293,-2.137C-6.595,-0.261 -5.841,1.555 -5.056,3.259C-4.702,4.048 -4.309,4.826 -3.929,5.578L-2.896,7.49L-2.711,7.783L-3.143,8.119C-3.872,8.656 -4.603,9.165 -5.314,9.632C-6.789,10.599 -8.288,11.479 -9.824,12.371L-12.092,13.697L-13.204,14.373C-13.268,14.293 -13.338,14.213 -13.415,14.131C-13.501,14.024 -13.709,13.809 -14.034,13.478L-14.226,13.281C-14.912,12.615 -15.6,12.023 -16.266,11.522C-17.518,10.568 -18.915,9.677 -20.535,8.801C-22.514,7.731 -24.423,6.85 -26.27,5.998C-27.06,5.632 -27.831,5.276 -28.576,4.92C-31.438,3.559 -33.391,2.446 -34.906,1.306C-35.811,0.624 -36.536,-0.029 -37.122,-0.691C-37.678,-1.318 -38.177,-2.016 -38.6,-2.76L-38.624,-2.804C-38.797,-3.087 -38.974,-3.469 -39.151,-3.938C-39.277,-4.275 -39.391,-4.63 -39.506,-5.053C-39.674,-5.699 -39.804,-6.321 -39.888,-6.903C-39.933,-7.206 -39.969,-7.47 -39.999,-7.69C-40.115,-8.531 -40.161,-8.855 -40.556,-8.868C-40.564,-8.868 -40.57,-8.871 -40.578,-8.871L-40.586,-8.871L-40.763,-8.868L-40.764,-8.866L-40.765,-8.866L-40.889,-8.74C-40.965,-8.664 -41.167,-8.461 -41.131,-6.796C-41.12,-6.176 -41.05,-5.484 -40.922,-4.74C-40.838,-4.267 -40.739,-3.845 -40.622,-3.443C-40.483,-2.987 -40.337,-2.532 -40.07,-2.011L-40.072,-2.011C-39.644,-1.123 -39.118,-0.285 -38.511,0.48C-37.883,1.273 -37.106,2.052 -36.133,2.859C-34.55,4.174 -32.536,5.443 -29.604,6.975C-28.802,7.396 -27.973,7.816 -27.129,8.243C-25.395,9.12 -23.603,10.027 -21.814,11.069C-20.339,11.928 -19.08,12.784 -17.965,13.687C-17.394,14.143 -16.827,14.661 -16.242,15.259C-16.169,15.34 -16.101,15.414 -16.032,15.486C-15.833,15.701 -15.644,15.903 -15.321,16.325C-15.251,16.415 -15.181,16.503 -15.11,16.592C-14.986,16.747 -14.861,16.904 -14.738,17.069L-13.937,18.155L-13.619,17.987C-13.295,17.816 -12.95,17.613 -12.617,17.416C-12.4,17.288 -12.186,17.162 -11.982,17.047L-8.331,15.012C-6.808,14.179 -5.188,13.284 -3.607,12.301C-2.834,11.82 -2.041,11.295 -1.24,10.734L-0.421,10.127L1.096,8.974L1.397,8.762L1.467,8.426L0,5.863Z" style="fill:rgb(23,45,58);fill-rule:nonzero;"/>
    </g>
</svg>
